# xmcd
#
# Track frame offsets:
#	150
#	16646
#	28267
#	37320
#	44060
#	53097
#	62095
#	69033
#	89469
#	99418
#	113320
#	125032
#	135279
#	152710
#	165787
#	176397
#	183368
#	188882
#	196117
#	201505
#	221741
#	233416
#	240797
#	247302
#	252989
#	261642
#	270379
#	285536
#	298809
#
# Disc length: 4205 seconds
#
# Revision: 0
# Processed by: cddbd v1.5.1PL2 Copyright (c) Steve Scherf et al.
# Submitted via: EasyCDDAExtractor 4.5.0.2
#
DISCID=9c106b1d
DTITLE=ацяажиытгс - пяицйипесса лоу
DYEAR=2006
DGENRE=казйодглотийа
TTITLE0=пяийципесса лоу
TTITLE1=евы ваяа йаи паы
TTITLE2=ма с' ацапы гмта 'хека
TTITLE3=ма фгсоум ои йоллытяиес
TTITLE4=лодистяес йаи йоллытяиес
TTITLE5=отам ле цкуйойоитафеис
TTITLE6=викиес мувтес
TTITLE7=тсоуйоу тсоуйоу тса
TTITLE8=поу ха пас ваяа лоу
TTITLE9=соу стекмы ема цяалла
TTITLE10=г фгкеиа
TTITLE11=ам хекеис ма выяисоуле
TTITLE12=хекы том хео ма том яытгсы
TTITLE13=т' астяа яытгса
TTITLE14=йомтоука бкава
TTITLE15=сам пеяпатас 
TTITLE16=сглеяа циыяцг л' пасвакиа
TTITLE17=о тавудяолос
TTITLE18=йымстамтимиа
TTITLE19=о йоййояас
TTITLE20=бягйа лиа жытоцяажиа
TTITLE21=йака ейама йи ацапгса
TTITLE22=ема цяалла сустглемо
TTITLE23=ле папоутсиа сйомислема
TTITLE24=ецы дем хекы памтяеиа
TTITLE25=апоье ломос пеяпаты
TTITLE26=цеитомиа се цеитомиа
TTITLE27=стейы стгм айяохакассиа
TTITLE28=гнемитиа йаи овыяислос
EXTD=
EXTT0=
EXTT1=
EXTT2=
EXTT3=
EXTT4=
EXTT5=
EXTT6=
EXTT7=
EXTT8=
EXTT9=
EXTT10=
EXTT11=
EXTT12=
EXTT13=
EXTT14=
EXTT15=
EXTT16=
EXTT17=
EXTT18=
EXTT19=
EXTT20=
EXTT21=
EXTT22=
EXTT23=
EXTT24=
EXTT25=
EXTT26=
EXTT27=
EXTT28=
PLAYORDER=
